<svg xmlns="http://www.w3.org/2000/svg" xmlns:xlink="http://www.w3.org/1999/xlink"><defs>
        <style>
            .cls-1{fill-rule:evenodd}
        </style>
    </defs><symbol id="action-cameras" viewBox="0 0 71 87">
<g>
	<path fill="#363636" d="M53.349,1.49c0-0.736-0.578-1.49-1.311-1.49H9.053C8.32,0,7.672,0.754,7.672,1.49v3.522h45.676V1.49z"/>
	<path fill="#363636" d="M54.202,81.809h-9.597V71.426h-6.958v2.507H18.774c-0.537-1.254-1.757-2.148-3.181-2.148H3.559
		C1.642,71.784,0,73.387,0,75.311v3.018c0,1.924,1.642,3.48,3.559,3.48h12.035c1.511,0,2.792-0.896,3.269-2.326h18.785v2.326H28.13
		c-0.533,0-1.01,0.437-1.01,0.972v3.172c0,0.535,0.478,1.048,1.01,1.048h26.072c0.533,0,0.93-0.513,0.93-1.048V82.78
		C55.132,82.245,54.735,81.809,54.202,81.809z"/>
	<path fill="#363636" d="M60.666,12.39c-0.861-2.937-3.567-5.05-6.771-5.05H7.148C3.25,7.34,0,10.449,0,14.361v46.9
		c0,3.912,3.25,7.121,7.148,7.121h46.747c3.898,0,7.126-3.209,7.126-7.121V50.915c6.066-4.204,10.001-11.211,10.001-19.164
		C71.021,23.672,66.89,16.57,60.666,12.39z M12.238,62.151c-3.259,0-5.901-2.65-5.901-5.921c0-3.27,2.642-5.922,5.901-5.922
		s5.902,2.652,5.902,5.922C18.14,59.501,15.497,62.151,12.238,62.151z M18.199,29.546c0,0.786-0.635,1.422-1.418,1.422H7.841
		c-0.783,0-1.418-0.637-1.418-1.422V15.386c0-0.786,0.635-1.423,1.418-1.423h8.939c0.783,0,1.418,0.637,1.418,1.423V29.546z
		 M47.762,51.858c-11.076,0-20.057-9.01-20.057-20.123s8.98-20.124,20.057-20.124c11.077,0,20.058,9.01,20.058,20.124
		S58.839,51.858,47.762,51.858z"/>
	<ellipse fill="#363636" cx="47.762" cy="31.735" rx="12.188" ry="12.229"/>
	<circle fill="#363636" cx="31.562" cy="31.736" r="1.435"/>
	<circle fill="#363636" cx="63.963" cy="31.736" r="1.435"/>
	<circle fill="#363636" cx="39.109" cy="17.994" r="1.435"/>
	<ellipse fill="#363636" cx="56.415" cy="45.476" rx="1.43" ry="1.436"/>
	<circle fill="#363636" cx="55.697" cy="17.565" r="1.435"/>
	<circle fill="#363636" cx="39.828" cy="45.906" r="1.435"/>
</g>
</symbol><symbol id="basket" viewBox="0 0 12 12">
<g>
	<path d="M11.864,3.017c-0.082-0.098-0.203-0.154-0.327-0.154H9.225V4.09c0,0.563-0.484,1.022-1.08,1.022
		c-0.594,0-1.078-0.458-1.078-1.022V2.863H4.909V4.09c0,0.563-0.485,1.022-1.08,1.022c-0.595,0-1.078-0.458-1.078-1.022V2.863H0.438
		c-0.125,0-0.243,0.056-0.327,0.154C0.028,3.115-0.012,3.245,0.003,3.375l0.776,7.134c0.015,0.806,0.642,1.455,1.411,1.455h7.595
		c0.77,0,1.396-0.649,1.411-1.455l0.776-7.134C11.987,3.245,11.946,3.115,11.864,3.017z"/>
	<path d="M3.829,4.499c0.239,0,0.433-0.184,0.433-0.409V1.84c0-0.632,0.672-1.022,1.295-1.022h1.079
		c0.655,0,1.078,0.401,1.078,1.022v2.25c0,0.225,0.194,0.409,0.431,0.409c0.239,0,0.433-0.184,0.433-0.409V1.84
		C8.577,0.773,7.761,0,6.636,0H5.557C4.367,0,3.398,0.826,3.398,1.84v2.25C3.398,4.315,3.592,4.499,3.829,4.499z"/>
</g>
</symbol><symbol id="compare" viewBox="0 0 10 10">
<rect x="8" y="2" width="1.984" height="8"/>
<rect y="3" width="1.984" height="7"/>
<rect x="4" width="2" height="10"/>
</symbol><symbol id="credit" viewBox="0 0 156 188">
<g>
	<circle fill="#FFFFFF" cx="141.25" cy="68.877" r="14.75"/>
	<path fill="#FFFFFF" d="M89.113,139.544l-7.074,17.875l-22.824,14.917c-2.168,1.232-3.634,3.559-3.634,6.23
		c0,3.958,3.208,7.167,7.167,7.167c1.535,0,2.955-0.487,4.121-1.31c3.761-2.371,22.351-14.084,25.495-15.88
		c3.5-2,4.125-5.125,4.125-5.125l4.875-16c0,0,0,0-5.75-2.625S89.113,139.544,89.113,139.544z"/>
	<path fill="#FFFFFF" d="M139.321,141.462c0,0-1.158-3.834-4.579-5.167s-18.087-7.75-18.087-7.75l15.416-25.584
		c0,0,3.834-9-0.333-13.417s-13.75-9.75-13.75-9.75h-7.521l15.799-26.801c3.354-5.686,1.443-13.081-4.242-16.432L72.633,7.447
		c-5.686-3.352-13.079-1.442-16.431,4.244L9.144,91.519c-3.351,5.685-1.442,13.08,4.244,16.432l49.39,29.113
		c5.686,3.352,13.081,1.441,16.432-4.242l22.934-38.903h8.096l-14.75,26.209c0,0-5.134,9.214-0.334,14.25
		c4.209,4.416,12.667,6.916,12.667,6.916l17.25,6.501l5.101,31.291l0.009-0.001c0.549,3.413,3.499,6.023,7.067,6.023
		c3.958,0,7.166-3.209,7.166-7.167c0-0.189-0.014-0.375-0.028-0.56l0.028-0.004L139.321,141.462z M17.958,100.198
		c-1.401-0.826-1.887-2.708-1.061-4.108l47.059-79.829c0.826-1.401,2.707-1.888,4.107-1.062l11.521,6.792l-50.104,84.998
		L17.958,100.198z M71.456,128.252c-0.826,1.4-2.707,1.887-4.107,1.061l-30.116-17.754l50.107-84.996l30.113,17.753
		c1.402,0.826,1.887,2.707,1.062,4.107l-18.493,31.372h-8.783L71.323,94.222c-0.442,0.252-0.853,0.553-1.23,0.891l-0.031,0.022
		l0.002,0.003c-1.445,1.312-2.358,3.198-2.358,5.304c0,3.958,3.208,7.167,7.167,7.167c1.548,0,2.978-0.496,4.149-1.331l0.002,0.003
		l0.071-0.058c0.182-0.133,0.356-0.273,0.524-0.423l9.66-7.784L71.456,128.252z"/>
</g>
<path fill="#F0C42E" d="M49.219,5.943L2.161,85.772c-3.351,5.685-1.442,13.08,4.244,16.432l49.39,29.113
	c5.686,3.352,13.081,1.441,16.432-4.242l47.057-79.829c3.354-5.686,1.443-13.081-4.242-16.432L65.65,1.7
	C59.965-1.652,52.571,0.258,49.219,5.943z M9.914,90.343l47.059-79.829c0.826-1.401,2.707-1.888,4.107-1.062l11.521,6.792
	l-50.105,84.998l-11.522-6.791C9.574,93.625,9.088,91.743,9.914,90.343z M111.531,42.676l-47.059,79.829
	c-0.826,1.4-2.707,1.887-4.107,1.061l-30.116-17.754l50.106-84.996l30.113,17.753C111.871,39.394,112.355,41.275,111.531,42.676z"/>
<g>
	<circle fill="#3A3A3A" cx="135.25" cy="63.083" r="14.75"/>
	<path fill="#3A3A3A" d="M81.875,133.75l-7.074,17.875l-22.825,14.917c-2.168,1.232-3.634,3.559-3.634,6.23
		c0,3.958,3.208,7.167,7.167,7.167c1.535,0,2.955-0.487,4.121-1.31c3.761-2.371,22.351-14.084,25.495-15.88
		c3.5-2,4.125-5.125,4.125-5.125l4.875-16c0,0,0,0-5.75-2.625S81.875,133.75,81.875,133.75z"/>
	<path fill="#3A3A3A" d="M132.083,135.668c0,0-1.158-3.834-4.579-5.167s-18.087-7.75-18.087-7.75l15.416-25.584
		c0,0,3.834-9-0.333-13.417S110.75,74,110.75,74H84L64.085,88.427c-0.442,0.253-0.853,0.553-1.23,0.891l-0.031,0.022l0.002,0.003
		c-1.445,1.311-2.358,3.198-2.358,5.303c0,3.958,3.208,7.167,7.167,7.167c1.548,0,2.978-0.496,4.149-1.331l0.002,0.003l0.071-0.058
		c0.182-0.133,0.357-0.273,0.525-0.423l14.743-11.881H103l-14.75,26.209c0,0-5.134,9.214-0.334,14.25
		c4.209,4.416,12.667,6.916,12.667,6.916l17.25,6.501l5.101,31.291l0.009-0.001c0.549,3.413,3.499,6.023,7.067,6.023
		c3.958,0,7.166-3.209,7.166-7.167c0-0.189-0.014-0.375-0.028-0.56l0.028-0.004L132.083,135.668z"/>
</g>
</symbol><symbol id="delivery" viewBox="0 0 136 164"><g fill="#fff"><path d="m93.133 38.767c8.121 0 14.945-5.542 16.9-13.049l5.467.814c.107.016.215.024.32.024 1.051 0 1.971-.77 2.131-1.84.176-1.178-.639-2.276-1.816-2.451l-5.541-.825c.002-.046.004-.091.004-.138 0-.182-.006-.362-.014-.542 0 0-.451-6.518-1.074-9.237-.621-2.719-2.535-3.296-2.535-3.296-9.77-2.212-19.772-2.438-22.375-2.438s-3.158 1.332-3.158 1.332l-3.15 4.996-.01-.003c-.076.122-.146.245-.219.368l-.027.043c-1.502 2.58-2.367 5.576-2.367 8.777-.001 9.646 7.819 17.465 17.464 17.465z"/><path d="m131.535 78.076v-.002l-26.742-2.168-9.246-21.112s-.461-2.774-6.008-8.476c-5.549-5.702-16.799-3.39-16.799-3.39s-23.886 4.469-31.745 6.318c-7.86 1.85-8.168 9.863-8.168 9.863l-.632 4.519-15.178-2.941c-.191-.037-.381-.055-.568-.055-1.407 0-2.671 1-2.948 2.429l-7.411 38.242c-.314 1.62.754 3.202 2.375 3.516l51.196 9.923c.115.022.23.024.346.033h.002c-.728.104-1.291-.035-1.291-.035l-9.4-1.849-3.082 17.105-23.56 20.363c-1.701 1.361-2.792 3.453-2.792 5.801 0 4.104 3.326 7.43 7.429 7.43 2.035 0 3.878-.818 5.22-2.145 0 0 27.725-22.05 29.575-23.591 1.85-1.54 2.773-3.853 2.773-3.853s4.541-13.948 5.779-16.874c.848-2.004 4.932-1.079 4.932-1.079l22.885 8.631 7.615 29.062c.082.63.242 1.234.473 1.804h.002c1.098 2.728 3.77 4.654 6.889 4.654 4.104 0 7.43-3.327 7.43-7.43 0-.599-.072-1.179-.207-1.736-.842-4.965-4.604-27.046-5.561-31.826-1.078-5.394-4.621-6.934-4.621-6.934s-21.268-11.558-22.654-12.329c-1.387-.77-1.078-2.774-1.078-2.774l3.93-14.331 2.773 5.856s1.619 3.274 4.084 3.391l33.357.82c4.104 0 7.43-3.326 7.43-7.431-.001-3.889-2.993-7.079-6.804-7.399zm-71.431-15.269-1.789 5.88 9.898 1.919-20.214-3.917.548-2.496zm-2.249 45.473-45.304-8.781 6.27-32.353 12.542 2.431-1.618 11.567-.64 4.406c-.005.026-.008.056-.012.082l-.018.127h.002c-.04.312-.063.629-.063.951 0 4.104 3.327 7.429 7.43 7.429s7.429-3.325 7.429-7.429c0-.318-.021-.63-.061-.937l2.901-13.223 17.413 3.374z"/><path d="m25.05 17.008h38.027c1.1 0 2-.896 2-1.99s-.9-1.99-2-1.99h-38.027c-1.1 0-2 .896-2 1.99s.9 1.99 2 1.99z"/><path d="m38.08 23.025c-1.1 0-2 .896-2 1.99s.9 1.99 2 1.99h22.959c1.1 0 2-.896 2-1.99 0-1.095-.9-1.99-2-1.99z"/></g><path d="m87.098 32.732c8.121 0 14.945-5.542 16.9-13.049l5.467.814c.107.016.215.024.32.024 1.051 0 1.971-.77 2.131-1.84.176-1.178-.639-2.276-1.816-2.451l-5.541-.825c.002-.046.004-.091.004-.138 0-.182-.006-.362-.014-.542 0 0-.451-6.518-1.074-9.237-.621-2.719-2.535-3.296-2.535-3.296-9.77-2.212-19.772-2.438-22.376-2.438s-3.158 1.332-3.158 1.332l-3.15 4.996-.01-.003c-.076.121-.146.245-.219.368l-.027.043c-1.502 2.58-2.367 5.576-2.367 8.777 0 9.646 7.82 17.465 17.465 17.465z" fill="#3a3a3a"/><path d="m125.5 72.041v-.002l-26.742-2.168-9.246-21.112s-.461-2.774-6.008-8.476c-5.549-5.702-16.799-3.39-16.799-3.39s-23.886 4.469-31.745 6.317c-7.86 1.85-8.168 9.863-8.168 9.863l-3.082 22.036-.64 4.406c-.005.026-.008.056-.012.082l-.018.127h.002c-.04.312-.063.629-.063.951 0 4.104 3.327 7.429 7.43 7.429s7.429-3.325 7.429-7.429c0-.318-.021-.63-.061-.937l4.734-21.581 11.557-1.386-1.789 5.88 9.898 1.919c1.62.313 2.688 1.896 2.375 3.517l-7.412 38.243c-.277 1.43-1.541 2.43-2.948 2.43-.072 0-.146-.016-.22-.021-.728.104-1.291-.035-1.291-.035l-9.4-1.849-3.082 17.105-23.56 20.363c-1.701 1.361-2.792 3.453-2.792 5.801 0 4.104 3.326 7.43 7.429 7.43 2.035 0 3.878-.818 5.22-2.145 0 0 27.725-22.05 29.575-23.591 1.85-1.54 2.773-3.853 2.773-3.853s4.541-13.948 5.779-16.874c.848-2.004 4.932-1.079 4.932-1.079l22.885 8.631 7.615 29.062c.082.63.242 1.234.473 1.804h.002c1.098 2.728 3.77 4.654 6.889 4.654 4.104 0 7.43-3.327 7.43-7.43 0-.599-.072-1.179-.207-1.736-.842-4.965-4.604-27.046-5.561-31.826-1.078-5.394-4.621-6.934-4.621-6.934s-21.267-11.555-22.653-12.327c-1.387-.77-1.078-2.774-1.078-2.774l3.93-14.331 2.773 5.856s1.619 3.274 4.084 3.391l33.357.82c4.104 0 7.43-3.326 7.43-7.431 0-3.89-2.992-7.081-6.803-7.4z" fill="#3a3a3a"/><path d="m53.971 108.739h.002c.073.006.147.021.22.021 1.407 0 2.671-1 2.948-2.43l7.412-38.243c.313-1.621-.755-3.203-2.375-3.517l-20.214-3.917-1.286 5.862 17.413 3.374-6.271 32.354-45.304-8.779 6.27-32.353 12.542 2.431.832-5.95-15.178-2.942c-.191-.037-.381-.055-.568-.055-1.407 0-2.671 1-2.948 2.429l-7.411 38.244c-.314 1.62.754 3.202 2.375 3.516l51.196 9.923c.114.022.229.023.345.032z" fill="#f0c42e"/><path d="m59.042 8.982c0 1.095-.9 1.99-2 1.99h-38.027c-1.1 0-2-.896-2-1.99s.9-1.99 2-1.99h38.027c1.1.001 2 .896 2 1.99z" fill="#f0c52e"/><path d="m57.004 18.98c0 1.094-.9 1.99-2 1.99h-22.96c-1.1 0-2-.896-2-1.99 0-1.095.9-1.99 2-1.99h22.959c1.101 0 2.001.896 2.001 1.99z" fill="#f0c52e"/></symbol><symbol id="facebook" viewBox="0 0 32 32">
<path fill="#FFFFFF" d="M16,0C7.164,0,0,7.163,0,16s7.164,16,16,16c8.837,0,16-7.164,16-16S24.837,0,16,0z M20.062,9.455h-3.021
	v3.444h3.021v3.445h-3.021v8.61h-3.021v-8.61H11v-3.445h3.021V9.455c0-1.902,1.353-3.445,3.021-3.445h3.021V9.455z"/>
</symbol><symbol id="fitness-braslet" viewBox="0 0 107 65">
<g>
	<path fill="#363636" d="M98.967,4.074c0.752,1.441,1.209,3.08,1.209,4.818v21.102c0,4.616-3.092,8.527-7.246,9.9
		c-1.325,3.987-3.778,7.854-8.051,10.432c-8.676,5.231-31.124,4.837-31.198,4.837c-0.078,0-22.513,0.395-31.189-4.837
		c-4.216-2.545-6.708-6.347-8.042-10.279c-4.418-1.209-7.756-5.251-7.756-10.053V8.893c0-1.688,0.427-3.282,1.139-4.693
		C4.17,5.109,0,6.918,0,10.434c0,6.243,0,25.687,0,29.983C0,50.668,11.839,64.85,53.657,64.85c41.82,0,53.657-14.182,53.657-24.433
		c0-4.296,0-23.74,0-29.983C107.313,6.75,102.738,4.94,98.967,4.074z"/>
	<path fill="#363636" d="M20.561,38.459h65.523c5.564,0,10.074-4.513,10.074-10.077V9.935c0-5.563-4.51-10.075-10.074-10.075H20.561
		c-5.564,0-10.075,4.511-10.075,10.075v18.447C10.486,33.946,14.997,38.459,20.561,38.459z M83.695,9.468
		c0.867,0,1.569,0.703,1.569,1.57c0,0.866-0.702,1.569-1.569,1.569s-1.568-0.703-1.568-1.569
		C82.127,10.17,82.828,9.468,83.695,9.468z M83.695,13.507c0.867,0,1.569,0.703,1.569,1.568c0,0.867-0.702,1.569-1.569,1.569
		s-1.568-0.702-1.568-1.569C82.127,14.21,82.828,13.507,83.695,13.507z M83.695,17.546c0.867,0,1.569,0.702,1.569,1.569
		c0,0.866-0.702,1.569-1.569,1.569s-1.568-0.703-1.568-1.569C82.127,18.248,82.828,17.546,83.695,17.546z M83.695,21.373
		c0.867,0,1.569,0.704,1.569,1.569c0,0.867-0.702,1.568-1.569,1.568s-1.568-0.701-1.568-1.568
		C82.127,22.076,82.828,21.373,83.695,21.373z M83.695,25.412c0.867,0,1.569,0.702,1.569,1.569c0,0.865-0.702,1.568-1.569,1.568
		s-1.568-0.704-1.568-1.568C82.127,26.114,82.828,25.412,83.695,25.412z M79.656,9.468c0.867,0,1.568,0.703,1.568,1.57
		c0,0.866-0.701,1.569-1.568,1.569c-0.865,0-1.568-0.703-1.568-1.569C78.088,10.17,78.791,9.468,79.656,9.468z M79.656,25.412
		c0.867,0,1.568,0.702,1.568,1.569c0,0.865-0.701,1.568-1.568,1.568c-0.865,0-1.568-0.704-1.568-1.568
		C78.088,26.114,78.791,25.412,79.656,25.412z M75.619,9.468c0.865,0,1.568,0.703,1.568,1.57c0,0.866-0.703,1.569-1.568,1.569
		c-0.867,0-1.569-0.703-1.569-1.569C74.05,10.17,74.752,9.468,75.619,9.468z M75.619,13.507c0.865,0,1.568,0.703,1.568,1.568
		c0,0.867-0.703,1.569-1.568,1.569c-0.867,0-1.569-0.702-1.569-1.569C74.05,14.21,74.752,13.507,75.619,13.507z M75.619,17.546
		c0.865,0,1.568,0.702,1.568,1.569c0,0.866-0.703,1.569-1.568,1.569c-0.867,0-1.569-0.703-1.569-1.569
		C74.05,18.248,74.752,17.546,75.619,17.546z M75.619,21.373c0.865,0,1.568,0.704,1.568,1.569c0,0.867-0.703,1.568-1.568,1.568
		c-0.867,0-1.569-0.701-1.569-1.568C74.05,22.076,74.752,21.373,75.619,21.373z M75.619,25.412c0.865,0,1.568,0.702,1.568,1.569
		c0,0.865-0.703,1.568-1.568,1.568c-0.867,0-1.569-0.704-1.569-1.568C74.05,26.114,74.752,25.412,75.619,25.412z M67.965,9.468
		c0.867,0,1.568,0.703,1.568,1.57c0,0.866-0.701,1.569-1.568,1.569s-1.568-0.703-1.568-1.569C66.396,10.17,67.1,9.468,67.965,9.468z
		 M67.965,17.546c0.867,0,1.568,0.702,1.568,1.569c0,0.866-0.701,1.569-1.568,1.569s-1.568-0.703-1.568-1.569
		C66.396,18.248,67.1,17.546,67.965,17.546z M67.965,21.427c0.867,0,1.568,0.701,1.568,1.568c0,0.865-0.701,1.569-1.568,1.569
		s-1.568-0.704-1.568-1.569C66.396,22.128,67.1,21.427,67.965,21.427z M67.965,25.412c0.867,0,1.568,0.702,1.568,1.569
		c0,0.865-0.701,1.568-1.568,1.568s-1.568-0.704-1.568-1.568C66.396,26.114,67.1,25.412,67.965,25.412z M63.926,9.468
		c0.867,0,1.57,0.703,1.57,1.57c0,0.866-0.703,1.569-1.57,1.569c-0.865,0-1.569-0.703-1.569-1.569
		C62.356,10.17,63.061,9.468,63.926,9.468z M63.926,17.546c0.867,0,1.57,0.702,1.57,1.569c0,0.866-0.703,1.569-1.57,1.569
		c-0.865,0-1.569-0.703-1.569-1.569C62.356,18.248,63.061,17.546,63.926,17.546z M63.926,25.412c0.867,0,1.57,0.702,1.57,1.569
		c0,0.865-0.703,1.568-1.57,1.568c-0.865,0-1.569-0.704-1.569-1.568C62.356,26.114,63.061,25.412,63.926,25.412z M59.888,9.468
		c0.865,0,1.569,0.703,1.569,1.57c0,0.866-0.704,1.569-1.569,1.569c-0.867,0-1.568-0.703-1.568-1.569
		C58.319,10.17,59.021,9.468,59.888,9.468z M59.888,13.507c0.865,0,1.569,0.703,1.569,1.568c0,0.867-0.704,1.569-1.569,1.569
		c-0.867,0-1.568-0.702-1.568-1.569C58.319,14.21,59.021,13.507,59.888,13.507z M59.888,17.546c0.865,0,1.569,0.702,1.569,1.569
		c0,0.866-0.704,1.569-1.569,1.569c-0.867,0-1.568-0.703-1.568-1.569C58.319,18.248,59.021,17.546,59.888,17.546z M59.888,25.412
		c0.865,0,1.569,0.702,1.569,1.569c0,0.865-0.704,1.568-1.569,1.568c-0.867,0-1.568-0.704-1.568-1.568
		C58.319,26.114,59.021,25.412,59.888,25.412z M51.598,9.468c0.867,0,1.569,0.703,1.569,1.57c0,0.866-0.702,1.569-1.569,1.569
		c-0.867,0-1.568-0.703-1.568-1.569C50.029,10.17,50.731,9.468,51.598,9.468z M51.598,13.507c0.867,0,1.569,0.703,1.569,1.568
		c0,0.867-0.702,1.569-1.569,1.569c-0.867,0-1.568-0.702-1.568-1.569C50.029,14.21,50.731,13.507,51.598,13.507z M51.598,17.546
		c0.867,0,1.569,0.702,1.569,1.569c0,0.866-0.702,1.569-1.569,1.569c-0.867,0-1.568-0.703-1.568-1.569
		C50.029,18.248,50.731,17.546,51.598,17.546z M51.598,21.427c0.867,0,1.569,0.701,1.569,1.568c0,0.865-0.702,1.569-1.569,1.569
		c-0.867,0-1.568-0.704-1.568-1.569C50.029,22.128,50.731,21.427,51.598,21.427z M51.598,25.412c0.867,0,1.569,0.702,1.569,1.569
		c0,0.865-0.702,1.568-1.569,1.568c-0.867,0-1.568-0.704-1.568-1.568C50.029,26.114,50.731,25.412,51.598,25.412z M47.559,13.507
		c0.867,0,1.568,0.703,1.568,1.568c0,0.867-0.701,1.569-1.568,1.569s-1.569-0.702-1.569-1.569
		C45.99,14.21,46.691,13.507,47.559,13.507z M39.057,13.295c0.865,0,1.569,0.703,1.569,1.568c0,0.867-0.704,1.569-1.569,1.569
		c-0.867,0-1.571-0.703-1.571-1.569C37.486,13.998,38.189,13.295,39.057,13.295z M39.057,17.333c0.865,0,1.569,0.703,1.569,1.57
		c0,0.866-0.704,1.57-1.569,1.57c-0.867,0-1.571-0.704-1.571-1.57C37.486,18.036,38.189,17.333,39.057,17.333z M35.018,9.255
		c0.865,0,1.568,0.703,1.568,1.57c0,0.866-0.704,1.568-1.568,1.568c-0.867,0-1.569-0.703-1.569-1.568
		C33.449,9.958,34.15,9.255,35.018,9.255z M35.018,13.295c0.865,0,1.568,0.703,1.568,1.568c0,0.867-0.704,1.569-1.568,1.569
		c-0.867,0-1.569-0.703-1.569-1.569C33.449,13.998,34.15,13.295,35.018,13.295z M35.018,17.333c0.865,0,1.568,0.703,1.568,1.57
		c0,0.866-0.704,1.57-1.568,1.57c-0.867,0-1.569-0.704-1.569-1.57C33.449,18.036,34.15,17.333,35.018,17.333z M35.018,21.373
		c0.865,0,1.568,0.704,1.568,1.569c0,0.867-0.704,1.568-1.568,1.568c-0.867,0-1.569-0.701-1.569-1.568
		C33.449,22.076,34.15,21.373,35.018,21.373z M30.764,13.295c0.867,0,1.569,0.703,1.569,1.568c0,0.867-0.702,1.569-1.569,1.569
		c-0.867,0-1.568-0.703-1.568-1.569C29.196,13.998,29.897,13.295,30.764,13.295z M30.764,17.333c0.867,0,1.569,0.703,1.569,1.57
		c0,0.866-0.702,1.57-1.569,1.57c-0.867,0-1.568-0.704-1.568-1.57C29.196,18.036,29.897,17.333,30.764,17.333z M30.764,21.373
		c0.867,0,1.569,0.704,1.569,1.569c0,0.867-0.702,1.568-1.569,1.568c-0.867,0-1.568-0.701-1.568-1.568
		C29.196,22.076,29.897,21.373,30.764,21.373z M30.764,25.412c0.867,0,1.569,0.702,1.569,1.569c0,0.865-0.702,1.568-1.569,1.568
		c-0.867,0-1.568-0.704-1.568-1.568C29.196,26.114,29.897,25.412,30.764,25.412z M26.3,9.255c0.867,0,1.571,0.703,1.571,1.57
		c0,0.866-0.704,1.568-1.571,1.568c-0.865,0-1.569-0.703-1.569-1.568C24.731,9.958,25.435,9.255,26.3,9.255z M26.3,13.295
		c0.867,0,1.571,0.703,1.571,1.568c0,0.867-0.704,1.569-1.571,1.569c-0.865,0-1.569-0.703-1.569-1.569
		C24.731,13.998,25.435,13.295,26.3,13.295z M26.3,17.333c0.867,0,1.571,0.703,1.571,1.57c0,0.866-0.704,1.57-1.571,1.57
		c-0.865,0-1.569-0.704-1.569-1.57C24.731,18.036,25.435,17.333,26.3,17.333z M26.3,21.373c0.867,0,1.571,0.704,1.571,1.569
		c0,0.867-0.704,1.568-1.571,1.568c-0.865,0-1.569-0.701-1.569-1.568C24.731,22.076,25.435,21.373,26.3,21.373z M22.263,13.295
		c0.865,0,1.569,0.703,1.569,1.568c0,0.867-0.704,1.569-1.569,1.569c-0.867,0-1.569-0.703-1.569-1.569
		C20.694,13.998,21.396,13.295,22.263,13.295z M22.263,17.333c0.865,0,1.569,0.703,1.569,1.57c0,0.866-0.704,1.57-1.569,1.57
		c-0.867,0-1.569-0.704-1.569-1.57C20.694,18.036,21.396,17.333,22.263,17.333z"/>
</g>
</symbol><symbol id="instagram" viewBox="0 0 32 32">
<g>
	<path fill="#FFFFFF" d="M20.916,16c0,2.728-2.211,4.938-4.938,4.938S11.039,18.728,11.039,16c0-0.394,0.051-0.773,0.138-1.14
		h-0.897v6.838h11.396V14.86h-0.897C20.865,15.227,20.916,15.606,20.916,16z"/>
	<path fill="#FFFFFF" d="M15.978,18.659c1.466,0,2.659-1.193,2.659-2.659s-1.193-2.659-2.659-2.659
		c-1.466,0-2.659,1.193-2.659,2.659S14.511,18.659,15.978,18.659z"/>
	<rect x="18.637" y="10.302" fill="#FFFFFF" width="3.039" height="3.039"/>
	<path fill="#FFFFFF" d="M16,0C7.164,0,0,7.164,0,16c0,8.837,7.164,16,16,16c8.837,0,16-7.163,16-16C32,7.164,24.837,0,16,0z
		 M23.955,21.698c0,1.254-1.025,2.279-2.279,2.279H10.279C9.026,23.978,8,22.952,8,21.698V10.302c0-1.253,1.026-2.279,2.279-2.279
		h11.396c1.254,0,2.279,1.026,2.279,2.279V21.698z"/>
</g>
</symbol><symbol id="logo-html-academy" viewBox="0 0 26.943 34.09">
  <path d="M13.62,0.017L13.472,0L0,1.412v24.661l13.473,8.017l13.43-7.99l0.042-0.025V1.412L13.62,0.017z M25.019,12.127L13.495,5.334 L13.494,5.23l-0.087,0.05l-0.088-0.056v0.109L1.925,12.118V3.147l11.548-1.212l11.547,1.212V12.127z M13.405,6.787L24.923,13.5 l-4.479,2.64l-7.093-4.221l-0.014,1.415l5.904,3.513l-0.86,0.507l-5.03-2.992l-0.014,1.415l3.827,2.275l-0.782,0.523l-3.031-1.787 l-0.014,1.413l1.853,1.091l-1.8,1.081L2.034,13.622L13.405,6.787z M1.925,15.127l11.411,6.791l0.016,1.044L5.41,18.234L5.395,19.65 l7.979,4.795l0.018,1.076l-7.973-4.74l-0.013,1.414l8.021,4.822l0.046,0.025l8.143-4.872l-0.011-5.177l3.415-2.036v10.021 L13.472,31.85L1.925,24.979V15.127z"/>
</symbol><symbol id="logo" viewBox="0 0 163 35">
    
    <path id="_-e-logo" d="M-.151.702v33.6h13.532a15.72 15.72 0 0 0 11.72-4.824 16.458 16.458 0 0 0 4.712-11.976 16.458 16.458 0 0 0-4.712-11.976A15.723 15.723 0 0 0 13.381.702H-.151zM7.582 26.91V8.091h5.8a8.646 8.646 0 0 1 6.5 2.568 9.407 9.407 0 0 1 2.489 6.84 9.406 9.406 0 0 1-2.489 6.84 8.642 8.642 0 0 1-6.5 2.568h-5.8zm34.8-5.952h12.082v-7.3H42.378V8.091h13.291V.702H34.645v33.6H55.91V26.91H42.378v-5.952zm36.343 13.344L89.744.702h-8.458l-7.491 24.72L66.304.702h-8.457l11.019 33.6h9.859zm14.4 0h7.733V.702h-7.733v33.6zm38.615-1.416a15.506 15.506 0 0 0 6.041-5.688l-6.67-3.84a7.482 7.482 0 0 1-3.165 3.024 9.87 9.87 0 0 1-4.664 1.1 9.595 9.595 0 0 1-7.177-2.736 9.909 9.909 0 0 1-2.682-7.248 9.909 9.909 0 0 1 2.682-7.248 9.595 9.595 0 0 1 7.177-2.736 9.897 9.897 0 0 1 4.639 1.08 7.592 7.592 0 0 1 3.19 3.048l6.67-3.84a15.873 15.873 0 0 0-6.09-5.688 17.42 17.42 0 0 0-8.409-2.088c-9.779-.272-17.797 7.691-17.591 17.472-.208 9.781 7.809 17.747 17.588 17.476a17.52 17.52 0 0 0 8.458-2.088zm17.881-11.928h12.082v-7.3h-12.085V8.091h13.29V.702h-21.023v33.6h21.265V26.91h-13.532v-5.952z" class="cls-1" data-name="-e-logo"/>
</symbol><symbol id="monopods-for-selfie" viewBox="0 0 86 117">
<g>
	<path fill="#363636" d="M82.821,4.011H3.33c-1.761,0-3.188,1.427-3.188,3.188v46.413c0,1.763,1.427,3.189,3.188,3.189h79.492
		c1.762,0,3.189-1.427,3.189-3.189V7.199C86.011,5.438,84.583,4.011,82.821,4.011z M8.392,37.236H8.166
		c-1.762,0-3.189-1.429-3.189-3.189v-7.283c0-1.761,1.427-3.188,3.189-3.188h0.226V37.236z M69.623,52.408H13.341V8.402h56.282
		V52.408z M78.4,34.552c-2.289,0-4.146-1.855-4.146-4.147s1.856-4.147,4.146-4.147c2.291,0,4.148,1.855,4.148,4.147
		S80.691,34.552,78.4,34.552z"/>
	<rect x="31.497" fill="#363636" width="23.157" height="2.758"/>
	<path fill="#363636" d="M46.608,64.861v-2.973h8.046v-2.758H31.498v2.758h8.045v35.246c-2.139,0.938-3.635,3.072-3.635,5.559V117
		h14.335v-14.307c0-2.486-1.495-4.621-3.636-5.557v-27.99h4.796l5.051,1.213v-6.711l-5.051,1.213H46.608z"/>
</g>
<g id="Layer_1_1_">
</g>
</symbol><symbol id="plus" viewBox="0 0 16 16">
<polygon fill="#272525" points="16,7 9,7 9,0 7,0 7,7 0,7 0,9 7,9 7,16 9,16 9,9 16,9 "/>
</symbol><symbol id="quadracopters" viewBox="0 0 132 69">
<g transform="translate(0.000000,512.000000) scale(0.100000,-0.100000)">
	<path fill="#363636" d="M120.522,5117.421c-55.449-4.873-102.139-15.928-114.77-26.724c-7.227-6.162-7.227-6.162-2.324-11.562
		c6.445-7.197,37.134-16.45,72.476-22.363c39.98-6.68,125.098-6.934,137.231-0.513c12.119,6.68,16.24,14.136,16.24,29.814
		c0,16.187-6.191,24.16-22.178,28.525C192.739,5118.457,149.414,5120,120.522,5117.421z"/>
	<path fill="#363636" d="M257.744,5115.117c-1.294-2.832-2.583-21.079-2.583-41.118c0-40.61,1.553-37.783-21.919-39.331
		l-10.308-0.771l-1.294-25.444l-1.289-25.439l-11.865-2.832c-25.791-6.68-39.99-25.952-37.915-52.944
		c1.279-19.272,10.308-33.408,25.786-40.869c11.089-5.132,14.697-5.381,112.461-5.381c55.449,0,101.372-0.786,101.885-1.807
		c0.508-1.284-11.094-94.072-25.796-206.387c-14.448-112.305-26.831-209.971-27.085-216.66
		c-0.513-16.172,8.262-26.211,23.477-26.211c12.373,0,20.117,6.416,23.213,19.014c1.294,5.137,14.956,103.33,30.181,218.213
		c15.22,114.629,28.628,208.687,29.404,208.687c1.03,0,10.83-14.131,21.924-31.357c29.399-46.26,23.989-43.169,76.353-43.169h43.584
		v-28.022v-28.276l-51.328-0.771c-47.202-0.771-52.1-1.27-58.813-6.152c-15.728-11.572-16.25-14.15-16.25-109.766
		c0-95.342,0.264-97.92,15.225-110.498l8.511-6.953h156.826h156.826l8.506,6.953c14.961,12.578,15.205,15.156,15.205,110.498
		c0,95.615-0.508,98.193-16.23,109.766c-6.709,4.883-11.611,5.381-58.818,6.152l-51.318,0.771v28.276v28.022h43.594
		c52.344,0,46.934-3.091,76.338,43.169c11.104,17.227,20.898,31.357,21.934,31.357c0.762,0,14.189-94.058,29.395-208.687
		c15.225-114.883,28.896-213.076,30.186-218.213c3.096-12.598,10.82-19.014,23.213-19.014c15.215,0,23.994,10.039,23.467,26.211
		c-0.254,6.689-12.637,104.355-27.09,216.66c-14.688,112.314-26.309,205.103-25.781,206.387c0.508,1.021,46.416,1.807,101.895,1.807
		c97.754,0,101.357,0.249,112.441,5.381c15.479,7.461,24.502,21.597,25.791,40.869c2.07,26.992-12.109,46.265-37.91,52.944
		l-11.875,2.832l-1.27,25.439l-1.289,25.444l-10.322,0.771c-23.467,1.548-21.934-1.279-21.934,39.331
		c0,20.039-1.279,38.286-2.568,41.118c-2.061,3.599-5.43,4.883-13.672,4.883c-6.191,0-12.383-1.284-14.199-3.086
		c-2.061-2.056-3.096-14.653-3.096-39.321c0-24.673-1.025-37.271-3.096-39.321c-1.797-1.797-9.014-3.081-16.494-3.081
		c-16.26,0-16.514-0.522-16.514-31.104v-22.871H660.127H324.805v22.871c0,30.581-0.249,31.104-16.499,31.104
		c-7.485,0-14.702,1.284-16.504,3.081c-2.075,2.051-3.101,14.648-3.101,39.321c0,24.668-1.03,37.266-3.096,39.321
		c-1.807,1.802-8.003,3.086-14.189,3.086C263.169,5120,259.814,5118.715,257.744,5115.117z M686.172,4713.916
		c28.887-8.984,53.916-33.926,61.66-61.68c4.385-15.43,3.096-42.158-2.842-57.832c-6.963-18.75-26.846-40.098-45.654-49.355
		c-12.9-6.416-17.539-7.188-39.209-7.188c-21.665,0-26.309,0.771-39.204,7.188c-18.843,9.258-38.691,30.605-45.659,49.355
		c-5.928,15.674-7.227,42.402-2.837,57.832c7.48,27.236,32.495,52.695,60.615,61.68
		C653.164,4720.341,666.045,4720.341,686.172,4713.916z"/>
	<path fill="#363636" d="M637.939,4675.625c-20.366-9.258-35.068-36.494-30.688-57.305c7.739-36.768,48.232-55.527,79.956-37.021
		c19.854,11.582,29.912,35.469,24.512,57.832c-5.684,23.906-27.344,41.377-51.592,41.377
		C653.672,4680.507,643.872,4678.193,637.939,4675.625z"/>
	<path fill="#363636" d="M360.918,5118.457c-39.204-6.68-45.132-11.309-45.132-34.438c0-18.247,4.639-24.16,22.681-29.556
		c15.498-4.624,71.724-5.142,105-1.284c68.608,8.223,113.218,25.444,96.987,37.52c-12.651,8.999-49.023,18.765-90.542,23.901
		C425.156,5117.68,369.951,5120,360.918,5118.457z"/>
	<path fill="#363636" d="M894.844,5117.421c-63.193-5.903-118.643-20.811-118.643-31.86c0-17.222,78.408-34.697,156.299-34.956
		c58.037,0,71.963,6.421,71.963,33.413c0,18.242-6.191,26.216-23.73,30.84C964.238,5118.974,923.984,5120,894.844,5117.421z"/>
	<path fill="#363636" d="M1127.764,5117.167c-17.803-2.31-30.186-7.705-34.307-14.907c-3.867-7.705-3.096-29.038,1.543-35.718
		c9.277-13.11,16.523-14.653,70.684-14.653c36.611,0,58.018,1.289,78.662,4.883c35.342,5.913,66.035,15.166,72.48,22.363
		c4.902,5.4,4.902,5.4-2.324,11.562c-13.408,11.309-59.58,21.851-119.16,26.724
		C1160.527,5120.253,1150.459,5120.253,1127.764,5117.167z"/>
</g>
</symbol><symbol id="search" viewBox="0 0 16 16">
<path d="M15.7,14.3l-3.104-3.104C13.473,10.023,14,8.576,14,7c0-3.866-3.134-7-7-7S0,3.134,0,7s3.134,7,7,7
	c1.576,0,3.023-0.527,4.193-1.404L14.3,15.7c0.185,0.184,0.38,0.3,0.7,0.3c0.553,0,1-0.447,1-1C16,14.781,15.945,14.546,15.7,14.3z
	 M2,7c0-2.762,2.238-5,5-5s5,2.238,5,5s-2.238,5-5,5S2,9.762,2,7z"/>
</symbol><symbol id="smart-watch" viewBox="0 0 56 98">
<g>
	<path fill="#363636" d="M54.494,32.197h-1.515v-4.64c0-5.052-4.087-9.186-9.082-9.186H9.082C4.086,18.372,0,22.505,0,27.557v42.868
		c0,5.052,4.087,9.185,9.083,9.185h34.815c4.995,0,9.082-4.133,9.082-9.185V67.01h1.515c0.415,0,0.757-0.344,0.757-0.764V52.467
		c0-0.421-0.342-0.766-0.757-0.766h-1.515v-8.788h1.515c0.832,0,1.514-0.688,1.514-1.531v-7.654
		C56.008,32.886,55.326,32.197,54.494,32.197z M34.082,29.088c2.926,0,5.299,2.398,5.299,5.358s-2.373,5.358-5.299,5.358
		s-5.298-2.398-5.298-5.358S31.156,29.088,34.082,29.088z M18.945,29.088c2.925,0,5.298,2.398,5.298,5.358s-2.373,5.358-5.298,5.358
		c-2.926,0-5.298-2.398-5.298-5.358S16.019,29.088,18.945,29.088z M5.297,49.397c0-2.959,2.371-5.358,5.298-5.358
		c2.926,0,5.298,2.399,5.298,5.358c0,2.959-2.373,5.358-5.298,5.358C7.668,54.756,5.297,52.356,5.297,49.397z M18.945,68.894
		c-2.926,0-5.298-2.398-5.298-5.358s2.372-5.358,5.298-5.358c2.925,0,5.298,2.398,5.298,5.358S21.87,68.894,18.945,68.894z
		 M20.435,48.991c0-3.382,2.711-6.124,6.055-6.124c3.344,0,6.055,2.742,6.055,6.124s-2.711,6.124-6.055,6.124
		C23.146,55.114,20.435,52.373,20.435,48.991z M34.082,68.894c-2.926,0-5.298-2.398-5.298-5.358s2.372-5.358,5.298-5.358
		s5.299,2.398,5.299,5.358S37.008,68.894,34.082,68.894z M42.384,54.756c-2.927,0-5.298-2.399-5.298-5.358
		c0-2.959,2.371-5.358,5.298-5.358c2.926,0,5.298,2.399,5.298,5.358C47.682,52.356,45.31,54.756,42.384,54.756z"/>
	<path fill="#363636" d="M9.646,15.31h33.687c0.843,0,1.432-0.681,1.306-1.514L43.023,3.028c0,0,0-0.001-0.002-0.002
		C42.771,1.362,41.189,0,39.506,0H13.474c-1.686,0-3.268,1.362-3.517,3.028L8.342,13.795C8.217,14.628,8.803,15.31,9.646,15.31z"/>
	<path fill="#363636" d="M43.333,82.671H9.646c-0.843,0-1.429,0.683-1.304,1.516l1.615,10.767c0.25,1.666,1.832,3.028,3.516,3.028
		h26.032c1.684,0,3.266-1.362,3.517-3.026c0-0.001,0-0.001,0-0.002l1.615-10.767C44.765,83.354,44.176,82.671,43.333,82.671z"/>
</g>
</symbol><symbol id="twitter" viewBox="0 0 32 32">
<g id="Layer_1">
</g>
<g id="Layer_2">
	<path fill="#FFFFFF" d="M16,0C7.164,0,0,7.164,0,16c0,8.837,7.164,16,16,16c8.837,0,16-7.163,16-16C32,7.164,24.837,0,16,0z
		 M23.944,12.809c-0.251,6.516-3.463,10.832-10.992,10.702c-0.14,0-0.205,0-0.233,0c-0.015,0-0.021,0-0.021,0
		c-0.029,0-0.094,0-0.232,0c-0.447,0-4.543-0.443-5.344-1.823c2.479,0.19,4.247-0.406,5.12-1.136
		c-1.048-0.289-2.923-0.461-3.251-2.848c0.384,0.104,0.618,0.221,1.299,0.113c-1.307-0.824-2.758-1.519-2.679-3.643
		c0.311,0.317,1.164,0.518,1.46,0.457c-0.768-0.233-2.149-3.244-0.974-4.781c1.984,1.79,4.075,3.482,7.804,3.643
		c0.227-2.214,1.24-3.699,3.168-4.325c1.84-0.479,3.255,0.26,3.901,1.138c0.737-0.224,1.453-0.466,2.193-0.685
		c-0.004,0.833-0.569,1.463-0.935,1.709c0.747,0.165,1.423-0.475,1.423-0.475C25.467,11.818,24.557,12.58,23.944,12.809z"/>
</g>
</symbol><symbol id="user" viewBox="0 0 13 12">
<path fill="#272525" d="M0.032,12h12.937c-0.163-2.643-2.074-4.837-4.671-5.543C9.306,5.846,9.985,4.75,9.985,3.485
	C9.985,1.561,8.425,0,6.5,0S3.015,1.561,3.015,3.485c0,1.264,0.68,2.361,1.688,2.972C2.106,7.163,0.194,9.357,0.032,12z"/>
</symbol><symbol id="virtual-reality" viewBox="0 0 97 55">
<g id="Layer_1_1_">
</g>
<g>
	<path fill="#363636" d="M84.131,32.639V20.003c0-1.309,1.045-2.37,2.335-2.37l8.326,1.581V11.02c0-2.355-1.708-3.431-4.202-4.265
		l-23.187-6.58c1.616,1.391,1.889,2.04,1.889,4.396v45.209c0,2.356-0.45,4.066-1.967,5.21l23.265-7.065
		c2.401-0.833,4.202-4.216,4.202-6.572V33.44l-8.326,1.567C85.176,35.009,84.131,33.947,84.131,32.639z"/>
	<path fill="#363636" d="M95.129,20.979l-7.598-1.444c-1.008,0-1.824,0.829-1.824,1.851v9.868c0,1.023,0.816,1.852,1.824,1.852
		l7.598-1.431c1.154-0.419,1.824-0.829,1.824-1.852V22.83C96.953,21.808,96.187,21.323,95.129,20.979z"/>
	<path fill="#363636" d="M67.17,4.483c0-5.08-4.232-4.459-4.232-4.459S5.832,4.738,2.838,5.145S0.001,9.532,0.001,9.532
		S0,42.069,0,45.812s2.599,3.753,2.599,3.753l16.477,1.403L27.212,39.3c0,0,1.109-1.828,2.505-1.828
		c1.397,0,2.432,1.861,2.432,1.861l9.061,13.521c0,0,18.895,1.909,22.521,1.909c3.626-0.001,3.439-5.024,3.439-5.024
		S67.17,9.563,67.17,4.483z M12.982,37.192c-3.698,0-6.696-4.601-6.696-10.275s2.998-10.275,6.696-10.275
		c3.698,0,6.696,4.601,6.696,10.275S16.68,37.192,12.982,37.192z M49.14,38.618c-4.662,0-8.441-5.239-8.441-11.701
		c0-6.463,3.78-11.702,8.441-11.702c4.662,0,8.442,5.239,8.442,11.702C57.582,33.379,53.802,38.618,49.14,38.618z"/>
</g>
</symbol><symbol id="warranty" viewBox="0 0 171 195">
<g>
	<path fill="#FFFFFF" d="M77.694,174.636c-0.104-0.13-10.495-12.996-12.609-15.76c-1.321-1.727-3.307-2.678-5.593-2.678
		c-2.56,0-4.836,1.17-5.512,1.553l-5.486,2.743c-1.773-0.479-5.587-1.95-9.28-6.268c-3.284-3.839-3.261-8.986-3.086-11.099
		l5.893-5.893c3.093-2.717,2.452-6.516,1.246-8.431l-0.219-0.311c0,0-12.862-16.221-14.666-18.498
		c-0.989-1.249-2.475-1.938-4.184-1.938c-2.849,0-5.879,1.975-6.756,2.592c-10.885,7.749-11.586,14.562-11.631,15.313l-0.024,0.414
		l0.074,0.409c6.412,35.726,26.026,51.137,35.453,58.543c1.148,0.901,2.14,1.681,2.854,2.306C50.731,193.38,57.93,194,60.721,194
		c2.375-0.001,4.48-0.405,6.089-1.171c4.366-2.078,9.425-8.01,10.872-9.778c2.501-3.059,1.283-6.599,0.168-8.208L77.694,174.636z
		 M63.801,186.509C63.302,186.746,62.231,187,60.72,187c-1.56,0-7.032-0.334-11.944-4.632c-0.854-0.747-1.913-1.579-3.139-2.543
		c-8.694-6.83-26.729-21.001-32.78-53.684c0.289-0.979,1.829-4.938,8.62-9.771c0.652-0.453,1.508-0.904,2.119-1.142
		c2.831,3.572,11.41,14.392,13.502,17.03l-7.528,7.527l-0.203,1.055c-0.081,0.422-1.911,10.409,4.527,17.937
		c6.286,7.349,13.25,8.667,14.583,8.856l1.082,0.154l7.644-3.823l0.218-0.118c0.281-0.167,1.335-0.648,2.071-0.648
		c0.036,0,0.065,0.001,0.088,0.003c2.149,2.8,11.105,13.897,12.5,15.624c0.001,0.004,0.002,0.007,0.004,0.01
		C69.522,181.93,65.911,185.504,63.801,186.509z"/>
	<path fill="#FFFFFF" d="M137.85,65.824c5.512-5.177,7.156-11.975,5.033-20.783c-0.207-0.856-0.848-1.541-1.689-1.802
		c-0.842-0.262-1.76-0.06-2.414,0.53l-8.221,7.403c-1.438-0.795-3.676-2.451-4.465-5.33l6.803-6.729
		c0.947-0.938,0.992-2.453,0.104-3.446l-0.186-0.207c-0.193-0.216-0.422-0.396-0.678-0.533c-0.16-0.086-3.988-2.116-8.824-2.116
		c-4.709,0-8.859,1.921-12.002,5.556c-6,6.938-4.557,15.042-3.543,18.471l-3.488,3.488L93.996,51.09l4.717-3.266L78.671,34.1
		L68.07,44.703l13.724,20.041l3.266-4.717l9.237,10.282l-3.295,3.294c-1.5-0.478-3.883-1.052-6.663-1.052
		c-5.429,0-10.236,2.174-13.962,6.359c-0.271,0.329-6.599,8.165-2.751,18.621c0.284,0.773,0.931,1.356,1.729,1.56
		c0.796,0.203,1.645,0.001,2.264-0.541l8.295-7.259c1.323,0.567,3.622,2.08,4.659,5.925l-7.384,7.516
		c-0.634,0.645-0.87,1.582-0.617,2.45s0.954,1.532,1.835,1.737c0.11,0.025,2.724,0.623,6.175,0.623
		c6.84,0,12.112-2.271,15.245-6.567c3.363-4.613,4.094-9.433,3.994-13.088l16.217,16.217l0.172,0.158
		c1.521,1.26,4.318,2.725,7.451,2.725c2.227,0,4.625-0.741,6.852-2.824l5.518-5.516l0.102-0.104
		c5.012-5.358,2.258-11.698,0.1-14.302l-16.945-16.959c1.027,0.106,2.148,0.181,3.322,0.181
		C131.498,69.462,135.279,68.238,137.85,65.824z M84.551,51.978l-2.734,3.949l-7.276-10.625l4.731-4.732l10.625,7.276l-3.95,2.734
		l14.792,13.286l-4.094,4.093l1.191-1.192L84.551,51.978z M98.113,85.502c0.109,0.313,2.615,7.746-2.328,14.527
		c-2.77,3.798-7.748,4.526-11.4,4.512l4.703-4.787c0.566-0.576,0.82-1.391,0.68-2.187c-1.791-10.147-9.745-11.484-10.083-11.536
		c-0.729-0.11-1.471,0.104-2.027,0.589l-6.204,5.428c-0.522-5.56,2.413-9.489,2.759-9.932c2.721-3.03,6.127-4.566,10.125-4.566
		c3.515,0,6.231,1.211,6.249,1.22c0.953,0.439,2.076,0.241,2.818-0.501l19-19c0.725-0.724,0.934-1.816,0.527-2.756
		c-0.035-0.083-3.494-8.34,2.158-14.876c2.195-2.539,4.961-3.826,8.221-3.826c1.23,0,2.383,0.183,3.365,0.421l-5.047,4.993
		c-0.551,0.544-0.818,1.312-0.725,2.08c1.012,8.3,8.969,11.077,9.307,11.191c0.855,0.288,1.801,0.094,2.473-0.511l6.049-5.447
		c0.373,4.864-1.02,8.554-4.309,11.642c-2.008,1.887-5.359,2.283-7.818,2.283c-3.689,0-6.951-0.865-6.982-0.873
		c-0.865-0.236-1.795,0.014-2.43,0.653l-18.5,18.667C98.023,83.587,97.801,84.6,98.113,85.502z M103.615,87.344
		c0,0.003,0,0.005,0,0.008C103.615,87.349,103.615,87.347,103.615,87.344z M103.434,86.223c0.01,0.052,0.02,0.104,0.029,0.158
		C103.453,86.329,103.443,86.274,103.434,86.223z M136.525,97.079l-5.479,5.476c-3.248,2.98-6.9,0.432-7.576-0.087l-18.643-18.645
		l14.941-15.075l-2.035,2.053l18.707,18.706C136.9,90.099,139.537,93.794,136.525,97.079z M121.316,69.025
		c0.008,0.001,0.016,0.002,0.023,0.004C121.332,69.027,121.324,69.026,121.316,69.025z M120.473,68.882
		c0.02,0.004,0.045,0.008,0.066,0.012C120.516,68.89,120.494,68.886,120.473,68.882z"/>
	<path fill="#FFFFFF" d="M104.162,6.002c-36.408,0-65.922,29.514-65.922,65.922c0,33.517,25.02,61.172,57.398,65.354v26.224
		c0,0,57.439-21.243,71.969-73.622c0.078-0.283,0.139-0.538,0.211-0.812c0.113-0.424,0.225-0.85,0.33-1.277
		c0.064-0.263,0.119-0.514,0.178-0.769c1.137-4.851,1.758-9.901,1.758-15.098C170.084,35.516,140.57,6.002,104.162,6.002z
		 M161.51,85.424l-0.006,0.027l-0.006,0.027l-0.029,0.13c-0.039,0.17-0.076,0.339-0.119,0.515c-0.094,0.376-0.191,0.751-0.301,1.161
		l-0.104,0.4c-0.025,0.108-0.053,0.216-0.082,0.324c-5.564,20.056-18.52,37.7-38.506,52.442
		c-7.373,5.438-14.408,9.464-19.719,12.175v-15.348v-6.154l-6.104-0.788c-29.243-3.777-51.295-28.889-51.295-58.412
		c0-32.49,26.432-58.922,58.922-58.922c32.488,0,58.922,26.432,58.922,58.922C163.084,76.432,162.555,80.974,161.51,85.424z"/>
</g>
<g>
	<path fill="#3A3A3A" d="M54.583,187.998c-2.791,0-9.989-0.62-16.554-6.364c-0.714-0.625-1.706-1.404-2.854-2.306
		c-9.426-7.406-29.041-22.817-35.453-58.543l-0.074-0.409l0.024-0.414c0.044-0.752,0.746-7.564,11.631-15.313
		c0.877-0.617,3.907-2.592,6.756-2.592c1.708,0,3.194,0.688,4.184,1.938c1.804,2.277,14.666,18.498,14.666,18.498l0.219,0.311
		c1.206,1.915,1.847,5.714-1.246,8.431l-5.893,5.893c-0.175,2.112-0.198,7.26,3.086,11.099c3.692,4.317,7.507,5.789,9.28,6.268
		l5.486-2.743c0.676-0.383,2.952-1.553,5.512-1.553c2.286,0,4.272,0.951,5.593,2.678c2.114,2.764,12.504,15.63,12.609,15.76
		l0.155,0.207c1.115,1.609,2.333,5.149-0.168,8.208c-1.447,1.769-6.505,7.7-10.872,9.778
		C59.063,187.593,56.958,187.997,54.583,187.998z M6.72,120.14c6.051,32.683,24.086,46.854,32.78,53.684
		c1.226,0.964,2.285,1.796,3.139,2.543c4.912,4.298,10.384,4.632,11.944,4.632c1.511,0,2.582-0.254,3.081-0.491
		c2.11-1.005,5.722-4.579,8.284-7.674c-0.001-0.003-0.003-0.006-0.004-0.01c-1.394-1.727-10.351-12.824-12.5-15.624
		c-0.023-0.002-0.053-0.003-0.088-0.003c-0.736,0-1.79,0.481-2.071,0.648l-0.218,0.118l-7.644,3.823l-1.082-0.154
		c-1.333-0.189-8.297-1.508-14.583-8.856c-6.438-7.527-4.608-17.515-4.527-17.937l0.203-1.055l7.528-7.527
		c-2.092-2.639-10.671-13.458-13.502-17.03c-0.611,0.237-1.467,0.688-2.119,1.142C8.548,115.202,7.008,119.161,6.72,120.14z"/>
</g>
<g>
	<path fill="#F0C42E" d="M78.443,103.54c-3.452,0-6.065-0.598-6.175-0.623c-0.881-0.205-1.583-0.869-1.835-1.737
		s-0.017-1.806,0.617-2.45l7.384-7.516c-1.037-3.845-3.336-5.357-4.659-5.925l-8.295,7.259c-0.62,0.542-1.468,0.744-2.264,0.541
		c-0.798-0.203-1.444-0.787-1.729-1.559c-3.848-10.457,2.48-18.293,2.751-18.622c3.726-4.185,8.533-6.359,13.962-6.359
		c2.78,0,5.162,0.574,6.663,1.052l16.766-16.765c-1.013-3.43-2.457-11.534,3.543-18.471c3.143-3.634,7.293-5.556,12.002-5.556
		c4.837,0,8.664,2.029,8.825,2.116c0.255,0.137,0.484,0.317,0.677,0.533l0.186,0.207c0.89,0.993,0.845,2.508-0.104,3.446
		l-6.803,6.729c0.789,2.879,3.028,4.535,4.465,5.33l8.222-7.403c0.654-0.59,1.572-0.792,2.413-0.53
		c0.842,0.261,1.483,0.945,1.69,1.802c2.123,8.809,0.478,15.606-5.033,20.783c-2.57,2.414-6.353,3.638-11.242,3.638
		c-2.789,0-5.324-0.407-6.839-0.714L97.127,79.399c0.729,3.181,1.631,10.62-3.439,17.574
		C90.555,101.269,85.283,103.54,78.443,103.54z M78.247,98.539c3.651,0.015,8.631-0.714,11.4-4.512
		c4.944-6.781,2.438-14.214,2.329-14.527c-0.313-0.902-0.091-1.915,0.582-2.593l18.5-18.667c0.634-0.639,1.564-0.889,2.43-0.653
		c0.03,0.008,3.293,0.873,6.982,0.873c2.458,0,5.811-0.396,7.818-2.283c3.288-3.088,4.681-6.778,4.309-11.642l-6.049,5.447
		c-0.672,0.604-1.617,0.799-2.473,0.511c-0.338-0.114-8.295-2.891-9.307-11.191c-0.094-0.768,0.173-1.536,0.724-2.08l5.047-4.993
		c-0.981-0.238-2.135-0.421-3.365-0.421c-3.259,0-6.024,1.288-8.221,3.826c-5.651,6.536-2.192,14.793-2.157,14.876
		c0.405,0.94,0.196,2.033-0.528,2.756l-19,19c-0.741,0.742-1.865,0.94-2.817,0.501c-0.018-0.008-2.735-1.22-6.25-1.22
		c-3.998,0-7.404,1.536-10.125,4.566c-0.347,0.442-3.282,4.372-2.759,9.932l6.204-5.428c0.556-0.486,1.298-0.7,2.027-0.589
		c0.337,0.052,8.291,1.389,10.082,11.536c0.141,0.796-0.112,1.61-0.679,2.187L78.247,98.539z"/>
</g>
<g>
	<polygon fill="#3A3A3A" points="78.921,54.025 88.158,64.307 91.698,60.766 78.413,45.976 75.678,49.925 68.402,39.301 
		73.134,34.569 83.759,41.845 79.809,44.579 94.6,57.865 98.141,54.324 87.858,45.088 92.575,41.822 72.533,28.098 61.932,38.701 
		75.656,58.742 	"/>
	<path fill="#3A3A3A" d="M117.147,63.28c-1.413-0.146-2.64-0.356-3.517-0.534l-2.034,2.053l18.706,18.706
		c0.46,0.592,3.097,4.287,0.084,7.572l-5.478,5.476c-3.248,2.98-6.901,0.432-7.576-0.087L98.69,77.821l-1.563,1.578
		c0.245,1.07,0.505,2.63,0.555,4.485l16.217,16.218l0.173,0.158c1.521,1.26,4.318,2.725,7.45,2.725c2.228,0,4.625-0.741,6.853-2.824
		l5.518-5.516l0.102-0.103c5.012-5.358,2.257-11.699,0.099-14.303L117.147,63.28z"/>
</g>
<path fill="#3A3A3A" d="M98.023,7c32.489,0,58.922,26.432,58.922,58.922c0,4.508-0.529,9.05-1.573,13.5l-0.006,0.027l-0.007,0.027
	l-0.029,0.13c-0.038,0.17-0.076,0.339-0.118,0.515c-0.094,0.376-0.191,0.751-0.302,1.161l-0.103,0.4
	c-0.026,0.108-0.054,0.216-0.083,0.324c-5.564,20.056-18.52,37.7-38.506,52.442c-7.373,5.438-14.408,9.464-19.719,12.175v-15.348
	v-6.154l-6.104-0.788c-29.243-3.777-51.294-28.889-51.294-58.412C39.102,33.432,65.534,7,98.023,7 M98.023,0
	C61.616,0,32.102,29.514,32.102,65.922c0,33.517,25.02,61.172,57.398,65.354V157.5c0,0,57.439-21.243,71.97-73.622
	c0.078-0.283,0.138-0.538,0.21-0.812c0.114-0.424,0.225-0.85,0.331-1.277c0.063-0.263,0.119-0.514,0.177-0.769
	c1.138-4.851,1.758-9.901,1.758-15.098C163.945,29.514,134.432,0,98.023,0L98.023,0z"/>
</symbol></svg>